<svg width="90" height="92" viewBox="0 0 90 92" fill="none" xmlns="http://www.w3.org/2000/svg">
<path d="M86 46C88.2091 46 90.0177 44.2059 89.83 42.0048C89.4315 37.3332 88.3359 32.7434 86.5746 28.3966C84.3131 22.8156 80.9984 17.7446 76.8198 13.4731C72.6412 9.20159 67.6804 5.81326 62.2208 3.50154C56.7611 1.18982 50.9095 -2.64052e-07 45 0C39.0905 2.64052e-07 33.2389 1.18983 27.7792 3.50154C22.3196 5.81326 17.3588 9.2016 13.1802 13.4731C9.00156 17.7446 5.68688 22.8156 3.42542 28.3966C1.66406 32.7434 0.568464 37.3332 0.170043 42.0048C-0.0176855 44.2059 1.79086 46 4 46L45 46H86Z" fill="#C33633"/>
<circle cx="41.5" cy="23.5" r="7.5" fill="#FAAB78"/>
<circle cx="52.75" cy="30.75" r="3.75" fill="#FAAB78"/>
<line x1="37" y1="36.0278" x2="37" y2="24" stroke="#FAAB78" stroke-width="6" stroke-linecap="round"/>
<line x1="50.5" y1="37.5" x2="50.5" y2="31.5" stroke="#FAAB78" stroke-width="3" stroke-linecap="round"/>
<line x1="2" y1="50" x2="88" y2="50" stroke="#C33633" stroke-width="4" stroke-linecap="round"/>
</svg>
