<svg width="20" height="21" viewBox="0 0 20 21" fill="none" xmlns="http://www.w3.org/2000/svg">
<path d="M19.7687 8.37084H10.2319V12.3232H15.7201C15.2093 14.8348 13.0711 16.2778 10.2319 16.2778C6.88427 16.2778 4.18599 13.5796 4.18599 10.2308C4.18599 6.88312 6.88427 4.18485 10.2319 4.18485C11.6738 4.18485 12.9771 4.69679 13.9999 5.53399L16.9776 2.55741C15.1635 0.975778 12.8374 0 10.2319 0C4.55821 0 0 4.55706 0 10.2319C0 15.9068 4.55706 20.4638 10.2319 20.4638C15.3479 20.4638 20 16.7428 20 10.2319C20 9.62721 19.9072 8.97555 19.7687 8.37084Z" fill="#EEEBDD"/>
</svg>
