<svg width="25" height="26" viewBox="0 0 25 26" fill="none" xmlns="http://www.w3.org/2000/svg">
<path d="M12.4903 6.79087C8.94463 6.79087 6.0723 9.6646 6.0723 13.2089C6.0723 16.7545 8.94463 19.6282 12.4903 19.6282C16.0331 19.6282 18.9083 16.7545 18.9083 13.2089C18.9083 9.6646 16.0331 6.79087 12.4903 6.79087ZM12.4903 17.3792C10.1871 17.3792 8.31991 15.512 8.31991 13.2102C8.31991 10.9071 10.1871 9.04126 12.4903 9.04126C14.7934 9.04126 16.6579 10.9071 16.6579 13.2102C16.6579 15.512 14.7934 17.3792 12.4903 17.3792Z" fill="#EEEBDD"/>
<path d="M19.1637 8.05142C19.9902 8.05142 20.6603 7.38139 20.6603 6.55486C20.6603 5.72834 19.9902 5.0583 19.1637 5.0583C18.3372 5.0583 17.6671 5.72834 17.6671 6.55486C17.6671 7.38139 18.3372 8.05142 19.1637 8.05142Z" fill="#EEEBDD"/>
<path d="M24.3378 5.03332C23.6867 3.3549 22.3609 2.02771 20.6825 1.37938C19.7121 1.01427 18.6861 0.818523 17.6477 0.796311C16.3108 0.738003 15.8874 0.721344 12.4972 0.721344C9.10706 0.721344 8.67253 0.721344 7.34674 0.796311C6.31108 0.817135 5.28515 1.01288 4.31475 1.37938C2.63494 2.02771 1.30914 3.3549 0.659429 5.03332C0.294313 6.00511 0.0985673 7.02965 0.0777432 8.06808C0.0180475 9.4036 0 9.82702 0 13.2186C0 16.6087 -1.03434e-08 17.0405 0.0777432 18.3691C0.0985673 19.4075 0.294313 20.432 0.659429 21.4052C1.31053 23.0822 2.63633 24.4094 4.31614 25.0591C5.28237 25.4367 6.30831 25.6505 7.34951 25.6839C8.68642 25.7422 9.10984 25.7602 12.5 25.7602C15.8902 25.7602 16.3247 25.7602 17.6505 25.6839C18.6875 25.663 19.7135 25.4659 20.6853 25.1022C22.3637 24.4511 23.6895 23.1253 24.3406 21.4469C24.7057 20.4751 24.9014 19.4505 24.9223 18.4121C24.982 17.0766 25 16.6532 25 13.2616C25 9.87006 25 9.43969 24.9223 8.11112C24.9042 7.05881 24.7099 6.01621 24.3378 5.03332ZM22.6469 18.2663C22.6372 19.066 22.4928 19.8587 22.2151 20.6097C21.7917 21.7023 20.9296 22.5658 19.8384 22.9851C19.0957 23.2613 18.3127 23.4057 17.52 23.4168C16.2011 23.4779 15.8291 23.4932 12.4472 23.4932C9.06264 23.4932 8.71696 23.4932 7.37311 23.4168C6.58319 23.4071 5.79742 23.2613 5.05609 22.9851C3.96074 22.5672 3.09307 21.7037 2.66965 20.6097C2.39755 19.8684 2.25039 19.084 2.23789 18.2927C2.1782 16.9738 2.16432 16.6018 2.16432 13.22C2.16432 9.83674 2.16432 9.49106 2.23789 8.14582C2.24761 7.34618 2.39199 6.55486 2.66965 5.80381C3.09307 4.70846 3.96074 3.84634 5.05609 3.42709C5.79742 3.15221 6.58319 3.00644 7.37311 2.99533C8.69336 2.93564 9.06403 2.91898 12.4472 2.91898C15.8305 2.91898 16.1775 2.91898 17.52 2.99533C18.3127 3.00505 19.0957 3.15082 19.8384 3.42709C20.9296 3.84773 21.7917 4.71124 22.2151 5.80381C22.4872 6.54514 22.6344 7.32952 22.6469 8.12083C22.7066 9.44108 22.7218 9.81175 22.7218 13.195C22.7218 16.5768 22.7218 16.9405 22.6621 18.2677H22.6469V18.2663Z" fill="#EEEBDD"/>
</svg>
